<?xml version="1.0" encoding="UTF-8" standalone="no"?>
<svg
   xml:space="preserve"
   width="188.60001"
   height="104.023"
   version="1.1"
   id="svg23"
   sodipodi:docname="logo.svg"
   inkscape:version="1.2.2 (b0a8486541, 2022-12-01)"
   xmlns:inkscape="http://www.inkscape.org/namespaces/inkscape"
   xmlns:sodipodi="http://sodipodi.sourceforge.net/DTD/sodipodi-0.dtd"
   xmlns="http://www.w3.org/2000/svg"
   xmlns:svg="http://www.w3.org/2000/svg"><sodipodi:namedview
     id="namedview25"
     pagecolor="#ffffff"
     bordercolor="#000000"
     borderopacity="0.25"
     inkscape:showpageshadow="2"
     inkscape:pageopacity="0.0"
     inkscape:pagecheckerboard="0"
     inkscape:deskcolor="#d1d1d1"
     showgrid="false"
     inkscape:zoom="1.2062765"
     inkscape:cx="180.30691"
     inkscape:cy="91.604201"
     inkscape:window-width="1308"
     inkscape:window-height="740"
     inkscape:window-x="0"
     inkscape:window-y="0"
     inkscape:window-maximized="1"
     inkscape:current-layer="svg23" /><defs
     id="defs3"><path
       id="a"
       d="M 201.018,170.141 H 568.844 V 239.27 H 201.018 Z" /></defs><path
     d="m 19.827072,58.36376 c 0.152847,0.600691 0.815288,1.99252 0.668859,2.540937 -0.261368,0.978223 -1.647694,2.153315 -2.331534,2.858247 -1.572189,1.6211 -3.067343,3.356529 -4.529788,5.081873 -1.441657,1.70058 -3.047166,3.42531 -1.986099,5.82257 0.441729,0.998705 1.220333,1.795041 2.253889,2.143838 0.425221,0.143677 0.954684,0.09752 1.346891,0.309975 0.462211,0.25067 0.663969,0.84922 1.004208,1.233478 0.571955,0.645934 1.382963,1.085218 2.222401,1.239288 1.53459,0.28185 2.950568,-0.157433 4.261388,-0.951628 0.506536,-0.306918 1.007264,-0.8642 1.559044,-1.060762 0.589685,-0.210012 1.627825,0.432865 2.286903,0.462517 0.700959,0.03148 1.422399,-0.501646 2.078726,-0.418497 2.086368,0.264427 2.747279,3.007121 4.781068,3.510295 0.985867,0.243945 2.045099,0.254033 3.014457,-0.04708 0.748036,-0.232328 1.611012,-0.839744 2.26948,-0.143065 0.346351,0.366834 0.15468,0.683228 -0.11678,1.026523 -0.687813,0.869702 -1.24907,1.736347 -1.433404,2.858247 -0.156821,0.956215 0.07582,1.93077 0.576541,2.752783 0.216432,0.354606 0.972109,0.918307 0.909442,1.358202 -0.08865,0.623618 -1.352394,1.2292 -1.735735,1.71342 -1.342001,1.69569 -1.150636,4.36624 0.571649,5.725666 2.07628,1.639748 4.277894,0.526713 6.130711,-0.8266 0.498284,-0.364082 1.638831,-1.668788 2.286598,-1.489956 1.540703,0.424916 1.309292,1.916401 1.924656,3.047166 0.71716,1.318769 1.972955,1.869631 3.3764,2.072001 1.727175,0.249141 3.198791,-1.004208 4.469259,-2.010862 0.383648,-0.30386 1.337109,-1.377154 1.861682,-1.132293 0.862672,0.402906 0.781967,1.797486 1.118231,2.55347 0.775549,1.742467 2.706929,2.605137 4.50411,2.169827 0.999622,-0.24211 1.796874,-0.930234 2.598407,-1.54835 1.468557,-1.1326 2.887899,-2.354156 4.261387,-3.603532 0.511427,-0.464656 1.855873,-2.147812 2.575173,-2.087285 0.386398,0.03241 0.841884,1.258547 1.111202,1.55721 0.702181,0.778606 1.821329,1.269857 2.861915,1.269857 1.627826,0 3.136735,-0.852888 4.469259,-1.708834 0.453345,-0.290411 1.395192,-1.18304 1.963785,-0.968442 0.4885,0.184028 0.568592,1.00268 0.766071,1.425761 0.440201,0.943986 0.937566,1.773643 1.843646,2.319307 1.338332,0.805201 2.991835,0.883459 4.469564,0.52549 0.598857,-0.145205 1.684075,-0.739782 2.272842,-0.623617 0.468937,0.09293 0.805506,1.226447 1.101725,1.588696 0.700041,0.855946 1.790149,1.293089 2.861916,1.368289 1.848537,0.12962 3.007121,-0.929311 4.677133,-1.359423 0.46221,-0.119219 0.91555,0.201757 1.35117,0.317922 0.6603,0.176385 1.52695,0.17822 2.18266,-0.01226 2.23463,-0.647461 3.90923,-2.16921 5.92498,-3.217132 0.66305,-0.344824 1.55507,-0.06359 2.2866,-0.238137 0.74009,-0.176692 1.34414,-0.748647 2.07872,-0.909747 0.9232,-0.202371 1.68133,0.356439 2.49447,0.654493 0.98587,0.361331 2.22516,0.456402 3.22203,0.104847 1.45358,-0.512344 2.7216,-1.577996 3.94988,-2.485299 0.47689,-0.352161 1.06902,-1.043337 1.66298,-1.145438 0.50379,-0.08651 1.03845,0.180359 1.55905,0.129612 0.60527,-0.0587 1.1757,-0.415745 1.76722,-0.44876 0.5848,-0.03271 2.04082,0.339933 2.59688,0.561561 0.42155,0.168134 0.68751,0.595494 1.04242,0.865729 0.79818,0.607415 1.91487,0.951934 2.90899,0.792972 1.66451,-0.26626 3.33605,-1.230421 4.78108,-2.071083 0.41055,-0.238747 1.4658,-1.144826 1.9436,-1.002679 0.38304,0.113715 0.64226,1.489652 0.8859,1.849454 0.83914,1.241733 2.36517,1.881553 3.82272,1.647696 1.86749,-0.299581 3.38862,-1.589003 4.88531,-2.675136 0.56798,-0.412688 1.1974,-1.046089 1.87085,-1.259463 1.14085,-0.361638 2.28018,-0.0486 3.4299,-0.665498 1.34017,-0.718688 2.55745,-2.311665 3.94989,-2.799859 0.4139,-0.145206 0.8431,0.144288 1.24723,0.213069 0.65754,0.111577 1.44134,0.07642 2.07872,-0.117993 0.99565,-0.303555 2.15821,-0.555142 3.11839,-0.95438 0.54384,-0.226214 0.98251,-0.700958 1.54132,-0.872758 0.68475,-0.210319 1.40742,-0.114329 2.09646,-0.397405 0.9611,-0.394958 1.90997,-1.25182 2.91021,-1.483231 0.66519,-0.153765 1.38388,0.125335 2.07903,-0.04646 2.19611,-0.542303 5.25826,-2.940785 5.70672,-5.303807 0.39984,-2.10685 -0.80796,-4.203916 -2.90044,-4.710759 -0.65572,-0.15896 -1.72565,0.213376 -2.26428,-0.06573 -0.35858,-0.185862 -0.50439,-0.729694 -0.72786,-1.046087 -0.27452,-0.388538 -0.73886,-0.655411 -0.96661,-1.068405 -0.22622,-0.410548 -0.48269,-2.055797 -0.43163,-2.529624 0.0773,-0.718384 1.38418,-1.426679 1.89592,-1.843647 1.57799,-1.285753 3.73955,-2.670551 4.72756,-4.509916 1.01491,-1.890112 0.27298,-4.432577 -1.60918,-5.418442 -0.44723,-0.234163 -2.28384,-0.473217 -2.3835,-0.94949 -0.14948,-0.715936 0.82263,-1.440128 1.13138,-1.995575 0.7841,-1.410783 0.63279,-3.329935 -0.43042,-4.551798 -1.28361,-1.475894 -3.09883,-1.575245 -4.86575,-1.114563 -0.61292,0.159878 -1.23806,0.524573 -1.87085,0.575318 -0.75506,0.06022 -1.50188,-0.511428 -2.2866,-0.511734 -0.55972,0 -1.34139,0.402295 -1.86963,0.1825 -0.36652,-0.152541 -1.57891,-1.1702 -1.62537,-1.57708 -0.045,-0.392206 0.25922,-0.870313 0.32831,-1.26038 0.18678,-1.056175 -0.0428,-2.196417 -0.65724,-3.070094 -0.74223,-1.055564 -2.05122,-1.769974 -3.34828,-1.674596 -0.60223,0.04433 -1.38571,0.434392 -1.97479,0.293773 -1.00726,-0.240583 -1.65442,-1.118845 -2.80628,-1.234091 -2.22087,-0.222546 -4.02203,1.745212 -6.02861,2.290877 -0.60894,0.165687 -1.42606,-0.220099 -2.07872,-0.203898 -0.4506,0.01096 -1.32977,0.382425 -1.73024,0.175469 -0.28551,-0.14765 -0.13052,-0.57593 -0.0758,-0.812231 0.16446,-0.706155 0.2311,-1.507076 0.0721,-2.223319 -0.20971,-0.945515 -0.94521,-1.480786 -1.2616,-2.32909 -0.16111,-0.432253 -6.2e-4,-1.01613 -0.0828,-1.482009 -0.25525,-1.443797 -1.20321,-2.728633 -2.53452,-3.333297 -3.0655,-1.39244 -5.68989,1.690187 -8.52308,2.13375 -0.49063,0.07642 -0.95376,-0.427362 -1.35116,-0.660606 -0.68537,-0.4026 -1.48293,-0.682617 -2.2866,-0.641043 -2.01026,0.104548 -3.78696,1.393969 -5.71681,1.601842 -0.4671,0.05013 -0.848,-0.343602 -1.24723,-0.527936 -0.64716,-0.298358 -1.37257,-0.426138 -2.07873,-0.354605 -1.00329,0.102409 -2.55439,1.102947 -3.48614,0.907302 -0.47689,-0.09996 -0.97334,-0.888961 -1.39917,-1.168672 -0.94062,-0.617503 -1.36187,-1.318156 -2.18694,-2.035927 -0.52885,-0.460071 -1.24815,-0.646851 -1.74368,-1.131072 -0.48667,-0.475049 -0.79481,-1.026217 -1.37043,-1.421482 -0.5472,-0.375392 -1.2237,-0.709823 -1.87086,-0.85411 -0.32709,-0.07307 -0.93909,-0.03179 -1.17539,-0.306307 -0.30967,-0.359497 0.077,-1.738182 -0.0162,-2.265199 -0.34146,-1.928018 -1.9219,-2.964017 -3.69371,-3.333298 -1.20994,-0.252198 -2.40399,0.196562 -3.53383,0.580822 -2.663831,0.904856 -4.940953,2.506391 -7.483723,3.647551 -0.662746,0.29744 -1.410476,-0.235996 -2.078724,-0.334126 -0.910054,-0.133281 -1.750104,0.125335 -2.598714,0.42828 -1.794428,0.640431 -3.490424,1.721674 -5.092876,2.749726 -0.644711,0.413605 -1.638525,1.343834 -2.39084,1.450827 -0.447232,0.06389 -0.940929,-0.37631 -1.351171,-0.520904 -0.777689,-0.274209 -1.67582,-0.416662 -2.494471,-0.296524 -0.897214,0.131448 -2.163097,1.13902 -3.010177,1.012767 -0.472605,-0.0703 -0.814678,-0.824765 -1.149108,-1.13107 -0.473176,-0.43286 -1.547693,-0.6068 -1.866532,-1.11028 C 72.056322,27.626413 72.34826,26.410359 71.810237,25.544936 71.407331,24.896863 70.315389,24.429149 70.10232,23.741031 69.775838,22.686383 70.284514,21.667808 69.705527,20.56914 68.877706,18.997869 67.649423,19.190151 66.41411,18.352546 65.525762,17.750022 65.113685,16.594495 64.105808,16.004198 62.872941,15.282147 61.46491,15.457004 60.15623,15.85135 c -0.47291,0.14276 -1.058621,0.541081 -1.55935,0.502869 -0.532826,-0.04035 -0.986476,-0.691788 -1.455107,-0.932369 -0.980363,-0.504398 -2.161874,-0.552697 -3.222024,-0.347881 -1.651058,0.319145 -2.929168,2.158206 -4.573502,1.472226 1.259463,-1.672151 3.497456,-2.616443 4.898761,-4.23632 0.761792,-0.880707 1.355452,-1.959504 1.32427,-3.1743357 -0.0642,-2.4837711 -2.579147,-4.5190877 -4.975795,-4.0798042 -2.178382,0.3995432 -4.217061,1.7213681 -6.13224,2.7766268 -2.147507,1.1830394 -4.35065,2.2942401 -6.44466,3.5735731 -2.135891,1.305318 -3.91962,2.670857 -6.444048,3.002841 -0.54047,0.07123 -0.946432,-0.519376 -1.351173,-0.803672 -1.089801,-0.764543 -2.107766,-1.95981 -3.430202,-2.280483 -1.003902,-0.243639 -1.840283,0.184639 -2.806279,0.09263 -1.315711,-0.12503 -2.170434,-0.988618 -3.63777,-0.753233 -0.983115,0.157739 -1.765387,0.779522 -2.702648,1.050673 -0.688118,0.198702 -1.385715,0.05228 -2.078725,0.328317 -0.559116,0.222546 -1.084911,0.671917 -1.662981,0.820179 -0.60711,0.155294 -1.323659,-0.186474 -1.974788,-0.08162 -1.516247,0.243028 -2.8359321,1.404363 -3.9459103,2.420187 -1.094082,1.000845 -0.8932405,2.008415 -1.3270216,3.250148 -0.6266745,1.792901 -1.6599233,3.00009 -0.618115,4.97549 0.4178849,0.793278 1.122206,1.415368 1.9411626,1.750715 0.2063441,0.08467 0.8076459,0.187696 0.7501753,0.519682 -0.1366456,0.786552 -1.8690186,1.674901 -2.3795291,2.28354 -1.5238891,1.817968 -1.108144,4.932388 0.4010717,6.668123 1.093165,1.256406 2.1444497,0.986172 3.5148804,1.450829 1.033248,0.350631 1.643109,0.906079 2.806279,0.877038 0.463433,-0.01161 2.385032,-0.594577 2.385032,0.431947 0,0.377226 -0.691177,0.812231 -0.929924,1.052201 -0.825988,0.831491 -1.609178,1.692633 -2.298826,2.646096 -0.641348,0.887432 -1.344446,1.876049 -1.598479,2.964323 -0.171495,0.734585 0.059,1.796569 -0.321285,2.435165 -1.7507149,2.93834 -7.2538345,5.757458 -4.7752602,9.845516 a 3.7264209,3.7264209 0 0 0 1.198324,1.220946 c 1.0583158,0.665498 2.4791857,0.797252 3.6377692,0.3167 0.380285,-0.157433 1.539786,-1.194045 1.88675,-1.004513 0.549026,0.300192 0.86695,1.500044 1.439822,1.951556 2.033482,1.603675 4.118322,0.380895 6.13224,-0.473216 M 186.02758,38.727448 c -1.29676,0.279712 -3.45679,0.442035 -4.15226,1.746741 -0.72143,1.352394 0.0507,2.216289 0.75508,3.284386 0.34848,0.529464 0.43989,1.177538 0.8538,1.679794 0.77127,0.935426 2.28843,0.948571 3.37487,0.694844 3.88661,-0.906997 3.75393,-8.394382 -0.83149,-7.405765 M 6.7304904,62.866341 c -1.7241193,0.405352 -2.5880131,2.499055 -1.4768122,3.956915 0.4221647,0.554225 1.0812429,0.569815 1.5523188,1.008182 0.9510168,0.884681 1.3404722,2.071999 2.9389508,1.698135 C 11.685499,69.076228 12.052334,66.180379 11.210143,64.610024 10.292447,62.899355 8.541427,62.440813 6.7304904,62.866341 M 177.92025,92.079158 c -2.9897,0.570426 -4.11343,4.501968 -2.03287,6.695328 0.91555,0.965385 1.9112,0.942763 3.07223,1.278724 1.99283,0.57654 3.3709,1.24295 5.50892,0.78411 3.04106,-0.65236 4.37573,-4.498304 2.0772,-6.791934 -1.21421,-1.211774 -2.28659,-0.824765 -3.74017,-1.103558 -1.72596,-0.330762 -3.02027,-1.218499 -4.88501,-0.86267 z"
     style="fill:#f7d508;stroke:none;stroke-width:0.327812"
     id="path5" /><g
     aria-label="Intergeschlechtliche Menschen Landesverband NRW e. V."
     style="font-size:13.3333px;font-family:'Nimbus Sans';-inkscape-font-specification:'Nimbus Sans';white-space:pre;shape-inside:url(#a);display:inline;fill:#7902aa;stroke:#7902aa"
     transform="matrix(0.3056949,0,0,0.3056949,0.78686431,6.2354431)"
     id="g11"><path
       d="m 205.674,173.14 h -2.256 v 17.497 h 2.256 z m 3.696,4.92 v 12.577 h 2.016 V 183.7 c 0,-2.568 1.344,-4.248 3.408,-4.248 1.584,0 2.592,0.96 2.592,2.472 v 8.712 h 1.992 v -9.504 c 0,-2.088 -1.56,-3.432 -3.984,-3.432 -1.872,0 -3.072,0.72 -4.176,2.472 v -2.112 z m 17.76,0 h -2.064 v -3.455 h -1.992 v 3.456 h -1.704 v 1.632 h 1.704 v 9.504 c 0,1.296 0.864,1.992 2.424,1.992 0.528,0 0.96,-0.048 1.632,-0.168 v -1.68 c -0.288,0.072 -0.552,0.096 -0.96,0.096 -0.864,0 -1.104,-0.24 -1.104,-1.128 v -8.616 h 2.064 z m 12.552,6.96 c 0,-1.92 -0.144,-3.071 -0.504,-4.007 -0.816,-2.064 -2.736,-3.312 -5.088,-3.312 -3.504,0 -5.76,2.664 -5.76,6.816 0,4.152 2.16,6.672 5.712,6.672 2.88,0 4.872,-1.632 5.376,-4.368 h -2.016 c -0.552,1.656 -1.68,2.52 -3.288,2.52 -1.272,0 -2.352,-0.576 -3.024,-1.632 -0.48,-0.72 -0.648,-1.44 -0.672,-2.688 z m -9.216,-1.631 c 0.168,-2.328 1.584,-3.84 3.6,-3.84 2.04,0 3.456,1.584 3.456,3.84 z m 11.904,-5.329 v 12.577 h 2.016 v -6.528 c 0.024,-3.024 1.272,-4.368 4.032,-4.296 v -2.04 a 5.067,5.067 0 0 0 -0.768,-0.072 c -1.296,0 -2.28,0.768 -3.432,2.64 v -2.28 z m 15.96,0 v 1.825 c -1.008,-1.512 -2.112,-2.184 -3.696,-2.184 -3.048,0 -5.16,2.832 -5.16,6.864 0,2.112 0.504,3.648 1.584,4.92 0.936,1.104 2.136,1.704 3.432,1.704 1.512,0 2.592,-0.672 3.648,-2.256 v 0.648 c 0,3.36 -0.936,4.608 -3.432,4.608 -1.704,0 -2.592,-0.672 -2.784,-2.112 h -2.04 c 0.192,2.328 2.04,3.792 4.776,3.792 1.848,0 3.384,-0.6 4.2,-1.608 0.96,-1.176 1.32,-2.736 1.32,-5.688 V 178.06 Z m -3.504,1.489 c 2.112,0 3.312,1.776 3.312,4.968 0,3.048 -1.224,4.824 -3.312,4.824 -2.064,0 -3.264,-1.8 -3.264,-4.896 0,-3.072 1.2,-4.896 3.264,-4.896 z m 19.344,5.471 c 0,-1.92 -0.144,-3.071 -0.504,-4.007 -0.816,-2.064 -2.736,-3.312 -5.088,-3.312 -3.504,0 -5.76,2.664 -5.76,6.816 0,4.152 2.16,6.672 5.712,6.672 2.88,0 4.872,-1.632 5.376,-4.368 h -2.016 c -0.552,1.656 -1.68,2.52 -3.288,2.52 -1.272,0 -2.352,-0.576 -3.024,-1.632 -0.48,-0.72 -0.648,-1.44 -0.672,-2.688 z m -9.216,-1.631 c 0.168,-2.328 1.584,-3.84 3.6,-3.84 2.04,0 3.456,1.584 3.456,3.84 z m 20.664,-1.824 c -0.024,-2.472 -1.656,-3.864 -4.56,-3.864 -2.928,0 -4.824,1.512 -4.824,3.84 0,1.968 1.008,2.904 3.984,3.624 l 1.872,0.456 c 1.392,0.336 1.944,0.84 1.944,1.728 0,1.2 -1.176,1.992 -2.928,1.992 -1.08,0 -1.992,-0.312 -2.496,-0.84 -0.312,-0.36 -0.456,-0.72 -0.576,-1.608 h -2.112 c 0.096,2.904 1.728,4.296 5.016,4.296 3.168,0 5.184,-1.56 5.184,-3.984 0,-1.872 -1.056,-2.904 -3.552,-3.504 l -1.92,-0.456 c -1.632,-0.384 -2.328,-0.912 -2.328,-1.8 0,-1.176 1.032,-1.896 2.664,-1.896 1.608,0 2.472,0.696 2.52,2.016 z m 12.792,0.72 c -0.096,-1.224 -0.36,-2.016 -0.84,-2.712 -0.864,-1.176 -2.376,-1.872 -4.128,-1.872 -3.408,0 -5.592,2.688 -5.592,6.864 0,4.056 2.16,6.624 5.568,6.624 3,0 4.896,-1.8 5.136,-4.872 h -2.016 c -0.336,2.016 -1.368,3.024 -3.072,3.024 -2.208,0 -3.528,-1.8 -3.528,-4.776 0,-3.144 1.296,-5.016 3.48,-5.016 1.68,0 2.736,0.984 2.976,2.736 z m 2.376,-9.145 v 17.497 h 1.992 V 183.7 c 0,-2.568 1.344,-4.248 3.408,-4.248 0.672,0 1.296,0.192 1.776,0.552 0.576,0.432 0.816,1.032 0.816,1.92 v 8.712 h 1.992 v -9.504 c 0,-2.112 -1.512,-3.432 -3.96,-3.432 -1.776,0 -2.856,0.552 -4.032,2.088 v -6.648 z m 15.312,0 h -2.016 v 17.497 h 2.016 z m 13.992,11.88 c 0,-1.92 -0.144,-3.071 -0.504,-4.007 -0.816,-2.064 -2.736,-3.312 -5.088,-3.312 -3.504,0 -5.76,2.664 -5.76,6.816 0,4.152 2.16,6.672 5.712,6.672 2.88,0 4.872,-1.632 5.376,-4.368 h -2.016 c -0.552,1.656 -1.68,2.52 -3.288,2.52 -1.272,0 -2.352,-0.576 -3.024,-1.632 -0.48,-0.72 -0.648,-1.44 -0.672,-2.688 z m -9.216,-1.631 c 0.168,-2.328 1.584,-3.84 3.6,-3.84 2.04,0 3.456,1.584 3.456,3.84 z m 21.552,-1.104 c -0.096,-1.224 -0.36,-2.016 -0.84,-2.712 -0.864,-1.176 -2.376,-1.872 -4.128,-1.872 -3.408,0 -5.592,2.688 -5.592,6.864 0,4.056 2.16,6.624 5.568,6.624 3,0 4.896,-1.8 5.136,-4.872 h -2.016 c -0.336,2.016 -1.368,3.024 -3.072,3.024 -2.208,0 -3.528,-1.8 -3.528,-4.776 0,-3.144 1.296,-5.016 3.48,-5.016 1.68,0 2.736,0.984 2.976,2.736 z m 2.376,-9.145 v 17.497 h 1.992 V 183.7 c 0,-2.568 1.344,-4.248 3.408,-4.248 0.672,0 1.296,0.192 1.776,0.552 0.576,0.432 0.816,1.032 0.816,1.92 v 8.712 h 1.992 v -9.504 c 0,-2.112 -1.512,-3.432 -3.96,-3.432 -1.776,0 -2.856,0.552 -4.032,2.088 v -6.648 z m 17.76,4.92 h -2.064 v -3.455 h -1.992 v 3.456 h -1.704 v 1.632 h 1.704 v 9.504 c 0,1.296 0.864,1.992 2.424,1.992 0.528,0 0.96,-0.048 1.632,-0.168 v -1.68 c -0.288,0.072 -0.552,0.096 -0.96,0.096 -0.864,0 -1.104,-0.24 -1.104,-1.128 v -8.616 h 2.064 z m 4.224,-4.92 h -2.016 v 17.497 h 2.016 z m 5.28,4.92 h -1.992 v 12.577 h 1.992 z m 0,-4.92 h -2.016 v 2.52 h 2.016 z m 13.032,9.145 c -0.096,-1.224 -0.36,-2.016 -0.84,-2.712 -0.864,-1.176 -2.376,-1.872 -4.128,-1.872 -3.408,0 -5.592,2.688 -5.592,6.864 0,4.056 2.16,6.624 5.568,6.624 3,0 4.896,-1.8 5.136,-4.872 h -2.016 c -0.336,2.016 -1.368,3.024 -3.072,3.024 -2.208,0 -3.528,-1.8 -3.528,-4.776 0,-3.144 1.296,-5.016 3.48,-5.016 1.68,0 2.736,0.984 2.976,2.736 z m 2.376,-9.145 v 17.497 h 1.992 V 183.7 c 0,-2.568 1.344,-4.248 3.408,-4.248 0.672,0 1.296,0.192 1.776,0.552 0.576,0.432 0.816,1.032 0.816,1.92 v 8.712 h 1.992 v -9.504 c 0,-2.112 -1.512,-3.432 -3.96,-3.432 -1.776,0 -2.856,0.552 -4.032,2.088 v -6.648 z m 23.976,11.88 c 0,-1.92 -0.144,-3.071 -0.504,-4.007 -0.816,-2.064 -2.736,-3.312 -5.088,-3.312 -3.504,0 -5.76,2.664 -5.76,6.816 0,4.152 2.16,6.672 5.712,6.672 2.88,0 4.872,-1.632 5.376,-4.368 h -2.016 c -0.552,1.656 -1.68,2.52 -3.288,2.52 -1.272,0 -2.352,-0.576 -3.024,-1.632 -0.48,-0.72 -0.648,-1.44 -0.672,-2.688 z m -9.216,-1.631 c 0.168,-2.328 1.584,-3.84 3.6,-3.84 2.04,0 3.456,1.584 3.456,3.84 z m 28.152,7.248 4.92,-14.664 v 14.664 h 2.112 V 173.14 h -3.096 l -5.088,15.24 -5.184,-15.24 h -3.096 v 17.496 h 2.112 v -14.664 l 4.968,14.664 z m 21.072,-5.617 c 0,-1.92 -0.144,-3.071 -0.504,-4.007 -0.816,-2.064 -2.736,-3.312 -5.088,-3.312 -3.504,0 -5.76,2.664 -5.76,6.816 0,4.152 2.16,6.672 5.712,6.672 2.88,0 4.872,-1.632 5.376,-4.368 h -2.016 c -0.552,1.656 -1.68,2.52 -3.288,2.52 -1.272,0 -2.352,-0.576 -3.024,-1.632 -0.48,-0.72 -0.648,-1.44 -0.672,-2.688 z m -9.216,-1.631 c 0.168,-2.328 1.584,-3.84 3.6,-3.84 2.04,0 3.456,1.584 3.456,3.84 z m 11.928,-5.329 v 12.577 h 2.016 V 183.7 c 0,-2.568 1.344,-4.248 3.408,-4.248 1.584,0 2.592,0.96 2.592,2.472 v 8.712 h 1.992 v -9.504 c 0,-2.088 -1.56,-3.432 -3.984,-3.432 -1.872,0 -3.072,0.72 -4.176,2.472 v -2.112 z m 22.176,3.505 c -0.024,-2.472 -1.656,-3.864 -4.56,-3.864 -2.928,0 -4.824,1.512 -4.824,3.84 0,1.968 1.008,2.904 3.984,3.624 l 1.872,0.456 c 1.392,0.336 1.944,0.84 1.944,1.728 0,1.2 -1.176,1.992 -2.928,1.992 -1.08,0 -1.992,-0.312 -2.496,-0.84 -0.312,-0.36 -0.456,-0.72 -0.576,-1.608 h -2.112 c 0.096,2.904 1.728,4.296 5.016,4.296 3.168,0 5.184,-1.56 5.184,-3.984 0,-1.872 -1.056,-2.904 -3.552,-3.504 l -1.92,-0.456 c -1.632,-0.384 -2.328,-0.912 -2.328,-1.8 0,-1.176 1.032,-1.896 2.664,-1.896 1.608,0 2.472,0.696 2.52,2.016 z m 12.792,0.72 c -0.096,-1.224 -0.36,-2.016 -0.84,-2.712 -0.864,-1.176 -2.376,-1.872 -4.128,-1.872 -3.408,0 -5.592,2.688 -5.592,6.864 0,4.056 2.16,6.624 5.568,6.624 3,0 4.896,-1.8 5.136,-4.872 h -2.016 c -0.336,2.016 -1.368,3.024 -3.072,3.024 -2.208,0 -3.528,-1.8 -3.528,-4.776 0,-3.144 1.296,-5.016 3.48,-5.016 1.68,0 2.736,0.984 2.976,2.736 z m 2.376,-9.145 v 17.497 h 1.992 V 183.7 c 0,-2.568 1.344,-4.248 3.408,-4.248 0.672,0 1.296,0.192 1.776,0.552 0.576,0.432 0.816,1.032 0.816,1.92 v 8.712 h 1.992 v -9.504 c 0,-2.112 -1.512,-3.432 -3.96,-3.432 -1.776,0 -2.856,0.552 -4.032,2.088 v -6.648 z m 23.976,11.88 c 0,-1.92 -0.144,-3.071 -0.504,-4.007 -0.816,-2.064 -2.736,-3.312 -5.088,-3.312 -3.504,0 -5.76,2.664 -5.76,6.816 0,4.152 2.16,6.672 5.712,6.672 2.88,0 4.872,-1.632 5.376,-4.368 h -2.016 c -0.552,1.656 -1.68,2.52 -3.288,2.52 -1.272,0 -2.352,-0.576 -3.024,-1.632 -0.48,-0.72 -0.648,-1.44 -0.672,-2.688 z m -9.216,-1.631 c 0.168,-2.328 1.584,-3.84 3.6,-3.84 2.04,0 3.456,1.584 3.456,3.84 z m 11.928,-5.329 v 12.577 h 2.016 V 183.7 c 0,-2.568 1.344,-4.248 3.408,-4.248 1.584,0 2.592,0.96 2.592,2.472 v 8.712 h 1.992 v -9.504 c 0,-2.088 -1.56,-3.432 -3.984,-3.432 -1.872,0 -3.072,0.72 -4.176,2.472 v -2.112 z"
       style="font-size:24px"
       id="path7" /><path
       d="m 268.141,202.307 h -1.612 v 12.636 h 7.852 v -1.421 h -6.24 z m 15.964,11.787 c -0.156,0.035 -0.225,0.035 -0.312,0.035 -0.502,0 -0.78,-0.26 -0.78,-0.711 v -5.339 c 0,-1.612 -1.178,-2.478 -3.414,-2.478 -1.335,0 -2.392,0.381 -3.016,1.057 -0.416,0.468 -0.59,0.988 -0.624,1.89 h 1.456 c 0.121,-1.11 0.78,-1.613 2.132,-1.613 1.317,0 2.028,0.486 2.028,1.352 v 0.382 c -0.018,0.624 -0.33,0.849 -1.508,1.005 -2.046,0.26 -2.358,0.33 -2.912,0.555 -1.058,0.45 -1.595,1.248 -1.595,2.426 0,1.647 1.144,2.687 2.981,2.687 1.144,0 2.063,-0.399 3.086,-1.335 0.104,0.936 0.554,1.335 1.49,1.335 0.312,0 0.503,-0.035 0.988,-0.156 z m -2.53,-2.01 c 0,0.485 -0.139,0.78 -0.572,1.178 -0.59,0.537 -1.3,0.815 -2.15,0.815 -1.126,0 -1.785,-0.538 -1.785,-1.456 0,-0.954 0.624,-1.44 2.184,-1.664 1.543,-0.208 1.837,-0.278 2.323,-0.503 z m 4.108,-6.224 v 9.083 h 1.456 v -5.01 c 0,-1.854 0.97,-3.067 2.461,-3.067 1.144,0 1.872,0.693 1.872,1.785 v 6.292 h 1.439 v -6.864 c 0,-1.508 -1.127,-2.478 -2.878,-2.478 -1.352,0 -2.218,0.52 -3.016,1.785 v -1.525 z m 17.004,-3.553 h -1.439 v 4.698 c -0.607,-0.92 -1.577,-1.404 -2.79,-1.404 -2.358,0 -3.9,1.889 -3.9,4.784 0,3.068 1.49,4.957 3.951,4.957 1.248,0 2.115,-0.468 2.895,-1.595 v 1.196 h 1.283 z m -3.987,4.646 c 1.56,0 2.548,1.369 2.548,3.553 0,2.097 -1.005,3.484 -2.53,3.484 -1.595,0 -2.653,-1.404 -2.653,-3.519 0,-2.114 1.058,-3.518 2.635,-3.518 z m 13.936,3.934 c 0,-1.386 -0.104,-2.218 -0.364,-2.894 -0.59,-1.491 -1.976,-2.392 -3.675,-2.392 -2.53,0 -4.16,1.924 -4.16,4.922 0,2.999 1.56,4.819 4.126,4.819 2.08,0 3.518,-1.179 3.882,-3.155 h -1.456 c -0.398,1.196 -1.213,1.82 -2.374,1.82 -0.919,0 -1.699,-0.416 -2.184,-1.178 -0.347,-0.52 -0.468,-1.04 -0.486,-1.942 z m -6.656,-1.178 c 0.121,-1.682 1.144,-2.774 2.6,-2.774 1.473,0 2.496,1.144 2.496,2.774 z m 14.924,-1.318 c -0.017,-1.785 -1.196,-2.79 -3.293,-2.79 -2.115,0 -3.484,1.092 -3.484,2.773 0,1.421 0.728,2.097 2.877,2.617 l 1.352,0.33 c 1.005,0.242 1.404,0.606 1.404,1.248 0,0.866 -0.85,1.438 -2.115,1.438 -0.78,0 -1.438,-0.225 -1.802,-0.606 -0.226,-0.26 -0.33,-0.52 -0.416,-1.162 H 313.9 c 0.07,2.098 1.248,3.103 3.623,3.103 2.288,0 3.744,-1.127 3.744,-2.877 0,-1.352 -0.763,-2.098 -2.565,-2.531 l -1.387,-0.33 c -1.179,-0.277 -1.681,-0.658 -1.681,-1.3 0,-0.849 0.745,-1.369 1.924,-1.369 1.16,0 1.785,0.503 1.82,1.456 z m 5.806,6.552 3.485,-9.082 h -1.63 l -2.565,7.366 -2.427,-7.366 h -1.63 l 3.19,9.082 z m 12.273,-4.056 c 0,-1.386 -0.104,-2.218 -0.364,-2.894 -0.59,-1.491 -1.976,-2.392 -3.675,-2.392 -2.53,0 -4.16,1.924 -4.16,4.922 0,2.999 1.56,4.819 4.125,4.819 2.08,0 3.519,-1.179 3.883,-3.155 h -1.456 c -0.399,1.196 -1.213,1.82 -2.375,1.82 -0.918,0 -1.698,-0.416 -2.184,-1.178 -0.346,-0.52 -0.468,-1.04 -0.485,-1.942 z m -6.656,-1.178 c 0.12,-1.682 1.144,-2.774 2.6,-2.774 1.473,0 2.496,1.144 2.496,2.774 z m 8.597,-3.849 v 9.083 h 1.456 v -4.714 c 0.017,-2.184 0.919,-3.155 2.912,-3.103 v -1.473 a 3.655,3.655 0 0 0 -0.555,-0.052 c -0.936,0 -1.646,0.554 -2.478,1.906 v -1.646 z m 5.633,-3.553 v 12.636 h 1.3 v -1.161 c 0.694,1.057 1.612,1.56 2.878,1.56 2.392,0 3.952,-1.959 3.952,-4.975 0,-2.946 -1.474,-4.766 -3.883,-4.766 -1.248,0 -2.132,0.468 -2.808,1.49 v -4.784 z m 3.97,4.646 c 1.612,0 2.652,1.404 2.652,3.57 0,2.063 -1.075,3.467 -2.652,3.467 -1.543,0 -2.531,-1.387 -2.531,-3.519 0,-2.132 0.988,-3.518 2.53,-3.518 z m 14.005,7.141 c -0.156,0.035 -0.225,0.035 -0.312,0.035 -0.503,0 -0.78,-0.26 -0.78,-0.711 v -5.339 c 0,-1.612 -1.179,-2.478 -3.415,-2.478 -1.334,0 -2.392,0.381 -3.016,1.057 -0.416,0.468 -0.59,0.988 -0.624,1.89 h 1.456 c 0.122,-1.11 0.78,-1.613 2.132,-1.613 1.318,0 2.028,0.486 2.028,1.352 v 0.382 c -0.017,0.624 -0.33,0.849 -1.508,1.005 -2.045,0.26 -2.357,0.33 -2.912,0.555 -1.057,0.45 -1.594,1.248 -1.594,2.426 0,1.647 1.144,2.687 2.98,2.687 1.145,0 2.064,-0.399 3.086,-1.335 0.104,0.936 0.555,1.335 1.49,1.335 0.313,0 0.504,-0.035 0.989,-0.156 z m -2.53,-2.01 c 0,0.485 -0.14,0.78 -0.573,1.178 -0.59,0.537 -1.3,0.815 -2.15,0.815 -1.126,0 -1.784,-0.538 -1.784,-1.456 0,-0.954 0.624,-1.44 2.184,-1.664 1.542,-0.208 1.837,-0.278 2.322,-0.503 z m 4.108,-6.224 v 9.083 h 1.455 v -5.01 c 0,-1.854 0.97,-3.067 2.462,-3.067 1.144,0 1.872,0.693 1.872,1.785 v 6.292 h 1.438 v -6.864 c 0,-1.508 -1.126,-2.478 -2.877,-2.478 -1.352,0 -2.219,0.52 -3.016,1.785 v -1.525 z m 17.003,-3.553 h -1.439 v 4.698 c -0.606,-0.92 -1.577,-1.404 -2.79,-1.404 -2.358,0 -3.9,1.889 -3.9,4.784 0,3.068 1.49,4.957 3.952,4.957 1.248,0 2.114,-0.468 2.894,-1.595 v 1.196 h 1.283 z m -3.987,4.646 c 1.56,0 2.548,1.369 2.548,3.553 0,2.097 -1.005,3.484 -2.53,3.484 -1.595,0 -2.652,-1.404 -2.652,-3.519 0,-2.114 1.057,-3.518 2.634,-3.518 z m 21.06,-4.646 h -1.525 v 10.33 l -6.604,-10.33 h -1.75 v 12.636 h 1.525 V 204.7 l 6.534,10.244 h 1.82 z m 4.542,7.193 h 4.16 c 1.438,0 2.08,0.694 2.08,2.254 l -0.018,1.127 c 0,0.78 0.14,1.542 0.364,2.062 h 1.96 v -0.398 c -0.608,-0.416 -0.729,-0.867 -0.764,-2.548 -0.017,-2.08 -0.346,-2.704 -1.716,-3.294 1.422,-0.71 1.994,-1.56 1.994,-3.016 0,-2.184 -1.352,-3.38 -3.848,-3.38 h -5.824 v 12.636 h 1.612 z m 0,-1.42 v -4.351 h 3.9 c 0.901,0 1.421,0.138 1.82,0.485 0.433,0.364 0.658,0.936 0.658,1.681 0,1.508 -0.762,2.184 -2.478,2.184 z m 21.77,6.863 3.207,-12.636 h -1.803 l -2.322,10.262 -2.878,-10.262 h -1.733 l -2.808,10.262 -2.375,-10.262 h -1.802 l 3.241,12.636 h 1.768 l 2.825,-10.382 2.912,10.382 z m 17.178,-4.056 c 0,-1.386 -0.104,-2.218 -0.364,-2.894 -0.59,-1.491 -1.976,-2.392 -3.675,-2.392 -2.53,0 -4.16,1.924 -4.16,4.922 0,2.999 1.56,4.819 4.125,4.819 2.08,0 3.519,-1.179 3.883,-3.155 h -1.456 c -0.399,1.196 -1.213,1.82 -2.375,1.82 -0.918,0 -1.698,-0.416 -2.184,-1.178 -0.346,-0.52 -0.468,-1.04 -0.485,-1.942 z m -6.656,-1.178 c 0.121,-1.682 1.144,-2.774 2.6,-2.774 1.473,0 2.496,1.144 2.496,2.774 z m 10.313,3.431 h -1.803 v 1.803 h 1.803 z m 13.121,1.803 4.386,-12.636 h -1.716 l -3.502,10.695 -3.709,-10.695 h -1.733 l 4.541,12.636 z m 6.622,-1.803 h -1.803 v 1.803 h 1.803 z"
       style="font-size:17.3333px"
       id="path9" /></g><g
     style="display:inline"
     id="g21"
     transform="matrix(0.3056949,0,0,0.3056949,3.3024277,3.4685985)"><path
       d="m 111.358,79.418 a 45.64,45.64 0 0 0 -45.541,45.64 45.64,45.64 0 0 0 45.64,45.641 45.64,45.64 0 0 0 45.641,-45.64 45.64,45.64 0 0 0 -45.64,-45.641 45.64,45.64 0 0 0 -0.1,0 z m 0.1,13.23 a 32.411,32.411 0 0 1 32.41,32.41 32.411,32.411 0 0 1 -32.41,32.412 32.411,32.411 0 0 1 -32.412,-32.411 32.411,32.411 0 0 1 32.411,-32.412 z"
       style="fill:#7902aa;fill-opacity:1;stroke:none;stroke-width:9.28085;stroke-linecap:round;stroke-linejoin:round;stroke-miterlimit:4;stroke-dasharray:none;stroke-dashoffset:4.56;paint-order:markers fill stroke"
       transform="matrix(1.08175,0.359,-0.359,1.08175,83.319,-54.477)"
       id="path13" /><path
       d="m 104.95,164.706 c -25.168,0.055 -45.54,20.473 -45.54,45.64 h 13.228 c 0,-17.9 14.512,-32.411 32.412,-32.411 17.9,0 32.411,14.511 32.411,32.411 h 13.23 c 0,-25.206 -20.435,-45.64 -45.641,-45.64 z"
       style="fill:#7902aa;fill-opacity:1;stroke:none;stroke-width:9.28085;stroke-linecap:round;stroke-linejoin:round;stroke-miterlimit:4;stroke-dasharray:none;stroke-dashoffset:4.56;paint-order:stroke markers fill"
       transform="matrix(1.08175,0.359,-0.359,1.08175,83.319,-54.477)"
       id="path15" /><path
       d="m 64.7,205.055 h 2.647 a 5.28,5.28 0 0 1 5.291,5.291 v 2.646 a 5.28,5.28 0 0 1 -5.291,5.292 H 64.7 a 5.28,5.28 0 0 1 -5.292,-5.292 v -2.646 a 5.28,5.28 0 0 1 5.292,-5.291 z"
       style="fill:#7902aa;fill-opacity:1;stroke:none;stroke-width:9.28085;stroke-linecap:round;stroke-linejoin:round;stroke-miterlimit:4;stroke-dasharray:none;stroke-dashoffset:4.56;paint-order:stroke markers fill"
       transform="matrix(1.08175,0.359,-0.359,1.08175,83.319,-54.477)"
       id="path17" /><path
       d="m 142.753,205.055 h 2.646 a 5.28,5.28 0 0 1 5.291,5.291 v 2.646 a 5.28,5.28 0 0 1 -5.291,5.292 h -2.646 a 5.28,5.28 0 0 1 -5.292,-5.292 v -2.646 a 5.28,5.28 0 0 1 5.292,-5.291 z"
       style="display:inline;fill:#7902aa;fill-opacity:1;stroke:none;stroke-width:9.28085;stroke-linecap:round;stroke-linejoin:round;stroke-miterlimit:4;stroke-dasharray:none;stroke-dashoffset:4.56;paint-order:stroke markers fill"
       transform="matrix(1.08175,0.359,-0.359,1.08175,83.319,-54.477)"
       id="path19" /></g></svg>
