<svg xmlns="http://www.w3.org/2000/svg" xml:space="preserve" width="633.6" height="327.68"><defs><path id="a" d="M201.018 170.141h367.826v69.129H201.018z"/></defs><path d="M54.056 179.575c.5 1.965 2.667 6.518 2.188 8.312-.855 3.2-5.39 7.044-7.627 9.35-5.143 5.303-10.034 10.98-14.818 16.624-4.716 5.563-9.968 11.205-6.497 19.047 1.445 3.267 3.992 5.872 7.373 7.013 1.391.47 3.123.319 4.406 1.014 1.512.82 2.172 2.778 3.285 4.035 1.871 2.113 4.524 3.55 7.27 4.054 5.02.922 9.652-.515 13.94-3.113 1.657-1.004 3.295-2.827 5.1-3.47 1.929-.687 5.325 1.416 7.481 1.513 2.293.103 4.653-1.641 6.8-1.369 6.825.865 8.987 9.837 15.64 11.483 3.225.798 6.69.831 9.861-.154 2.447-.76 5.27-2.747 7.424-.468 1.133 1.2.506 2.235-.382 3.358-2.25 2.845-4.086 5.68-4.689 9.35-.513 3.128.248 6.316 1.886 9.005.708 1.16 3.18 3.004 2.975 4.443-.29 2.04-4.424 4.021-5.678 5.605-4.39 5.547-3.764 14.283 1.87 18.73 6.792 5.364 13.994 1.723 20.055-2.704 1.63-1.191 5.361-5.459 7.48-4.874 5.04 1.39 4.283 6.269 6.296 9.968 2.346 4.314 6.454 6.116 11.045 6.778 5.65.815 10.464-3.285 14.62-6.578 1.255-.994 4.374-4.505 6.09-3.704 2.822 1.318 2.558 5.88 3.658 8.353 2.537 5.7 8.855 8.522 14.734 7.098 3.27-.792 5.878-3.043 8.5-5.065 4.804-3.705 9.447-7.701 13.94-11.788 1.673-1.52 6.071-7.026 8.424-6.828 1.264.106 2.754 4.117 3.635 5.094 2.297 2.547 5.958 4.154 9.362 4.154 5.325 0 10.261-2.79 14.62-5.59 1.483-.95 4.564-3.87 6.424-3.168 1.598.602 1.86 3.28 2.506 4.664 1.44 3.088 3.067 5.802 6.031 7.587 4.378 2.634 9.787 2.89 14.621 1.719 1.959-.475 5.509-2.42 7.435-2.04 1.534.304 2.635 4.012 3.604 5.197 2.29 2.8 5.856 4.23 9.362 4.476 6.047.424 9.837-3.04 15.3-4.447 1.512-.39 2.995.66 4.42 1.04 2.16.577 4.995.583 7.14-.04 7.31-2.118 12.788-7.096 19.382-10.524 2.169-1.128 5.087-.208 7.48-.779 2.421-.578 4.397-2.449 6.8-2.976 3.02-.662 5.5 1.166 8.16 2.141 3.225 1.182 7.279 1.493 10.54.343 4.755-1.676 8.903-5.162 12.921-8.13 1.56-1.152 3.497-3.413 5.44-3.747 1.648-.283 3.397.59 5.1.424 1.98-.192 3.846-1.36 5.781-1.468 1.913-.107 6.676 1.112 8.495 1.837 1.379.55 2.249 1.948 3.41 2.832 2.611 1.987 6.264 3.114 9.516 2.594 5.445-.871 10.913-4.025 15.64-6.775 1.343-.781 4.795-3.745 6.358-3.28 1.253.372 2.101 4.873 2.898 6.05 2.745 4.062 7.737 6.155 12.505 5.39 6.109-.98 11.085-5.198 15.981-8.751 1.858-1.35 3.917-3.422 6.12-4.12 3.732-1.183 7.459-.159 11.22-2.177 4.384-2.351 8.366-7.562 12.921-9.159 1.354-.475 2.758.472 4.08.697 2.151.365 4.715.25 6.8-.386 3.257-.993 7.06-1.816 10.201-3.122 1.779-.74 3.214-2.293 5.042-2.855 2.24-.688 4.604-.374 6.858-1.3 3.144-1.292 6.248-4.095 9.52-4.852 2.176-.503 4.527.41 6.801-.152 7.184-1.774 17.201-9.62 18.668-17.35 1.308-6.892-2.643-13.752-9.488-15.41-2.145-.52-5.645.698-7.407-.215-1.173-.608-1.65-2.387-2.381-3.422-.898-1.271-2.417-2.144-3.162-3.495-.74-1.343-1.579-6.725-1.412-8.275.253-2.35 4.528-4.667 6.202-6.031 5.162-4.206 12.233-8.736 15.465-14.753 3.32-6.183.893-14.5-5.264-17.725-1.463-.766-7.471-1.548-7.797-3.106-.489-2.342 2.691-4.711 3.701-6.528 2.565-4.615 2.07-10.893-1.408-14.89-4.199-4.828-10.137-5.153-15.917-3.646-2.005.523-4.05 1.716-6.12 1.882-2.47.197-4.913-1.673-7.48-1.674-1.831 0-4.388 1.316-6.116.597-1.199-.499-5.165-3.828-5.317-5.159-.147-1.283.848-2.847 1.074-4.123.611-3.455-.14-7.185-2.15-10.043-2.428-3.453-6.71-5.79-10.953-5.478-1.97.145-4.533 1.421-6.46.961-3.295-.787-5.412-3.66-9.18-4.037-7.265-.728-13.157 5.709-19.721 7.494-1.992.542-4.665-.72-6.8-.667-1.474.036-4.35 1.251-5.66.574-.934-.483-.427-1.884-.248-2.657.538-2.31.756-4.93.236-7.273-.686-3.093-3.092-4.844-4.127-7.619-.527-1.414-.002-3.324-.271-4.848-.835-4.723-3.936-8.926-8.291-10.904-10.028-4.555-18.613 5.529-27.881 6.98-1.605.25-3.12-1.398-4.42-2.161-2.242-1.317-4.851-2.233-7.48-2.097-6.576.342-12.388 4.56-18.701 5.24-1.528.164-2.774-1.124-4.08-1.727-2.117-.976-4.49-1.394-6.8-1.16-3.282.335-8.356 3.608-11.404 2.968-1.56-.327-3.184-2.908-4.577-3.823-3.077-2.02-4.455-4.312-7.154-6.66-1.73-1.505-4.083-2.116-5.704-3.7-1.592-1.554-2.6-3.357-4.483-4.65-1.79-1.228-4.003-2.322-6.12-2.794-1.07-.239-3.072-.104-3.845-1.002-1.013-1.176.252-5.686-.053-7.41-1.117-6.307-6.287-9.696-12.083-10.904-3.958-.825-7.864.643-11.56 1.9-8.714 2.96-16.163 8.199-24.481 11.932-2.168.973-4.614-.772-6.8-1.093-2.977-.436-5.725.41-8.501 1.401-5.87 2.095-11.418 5.632-16.66 8.995-2.109 1.353-5.36 4.396-7.821 4.746-1.463.209-3.078-1.231-4.42-1.704-2.544-.897-5.482-1.363-8.16-.97-2.935.43-7.076 3.726-9.847 3.313-1.546-.23-2.665-2.698-3.759-3.7-1.548-1.416-5.063-1.985-6.106-3.632-1.542-2.436-.587-6.414-2.347-9.245-1.318-2.12-4.89-3.65-5.587-5.901-1.068-3.45.596-6.782-1.298-10.376-2.708-5.14-6.726-4.511-10.767-7.251-2.906-1.971-4.254-5.751-7.551-7.682-4.033-2.362-8.639-1.79-12.92-.5-1.547.467-3.463 1.77-5.101 1.645-1.743-.132-3.227-2.263-4.76-3.05-3.207-1.65-7.072-1.808-10.54-1.138-5.401 1.044-9.582 7.06-14.961 4.816 4.12-5.47 11.441-8.559 16.025-13.858 2.492-2.881 4.434-6.41 4.332-10.384-.21-8.125-8.437-14.783-16.277-13.346-7.126 1.307-13.795 5.631-20.06 9.083-7.025 3.87-14.232 7.505-21.082 11.69-6.987 4.27-12.822 8.737-21.08 9.823-1.768.233-3.096-1.699-4.42-2.629-3.565-2.501-6.895-6.411-11.221-7.46-3.284-.797-6.02.604-9.18.303-4.304-.409-7.1-3.234-11.9-2.464-3.216.516-5.775 2.55-8.841 3.437-2.251.65-4.533.171-6.8 1.074-1.829.728-3.549 2.198-5.44 2.683-1.986.508-4.33-.61-6.46-.267-4.96.795-9.277 4.594-12.908 7.917-3.579 3.274-2.922 6.57-4.341 10.632-2.05 5.865-5.43 9.814-2.022 16.276 1.367 2.595 3.671 4.63 6.35 5.727.675.277 2.642.614 2.454 1.7-.447 2.573-6.114 5.479-7.784 7.47C4.98 86.134 6.34 96.322 11.277 102c3.576 4.11 7.015 3.226 11.498 4.746 3.38 1.147 5.375 2.964 9.18 2.869 1.516-.038 7.802-1.945 7.802 1.413 0 1.234-2.261 2.657-3.042 3.442-2.702 2.72-5.264 5.537-7.52 8.656-2.098 2.903-4.398 6.137-5.229 9.697-.561 2.403.193 5.877-1.051 7.966-5.727 9.612-23.729 18.834-15.621 32.207a12.19 12.19 0 0 0 3.92 3.994c3.462 2.177 8.11 2.608 11.9 1.036 1.244-.515 5.037-3.906 6.172-3.286 1.796.982 2.836 4.907 4.71 6.384 6.652 5.246 13.472 1.246 20.06-1.548m543.681-64.236c-4.242.915-11.308 1.446-13.583 5.714-2.36 4.424.166 7.25 2.47 10.744 1.14 1.732 1.439 3.852 2.793 5.495 2.523 3.06 7.486 3.103 11.04 2.273 12.714-2.967 12.28-27.46-2.72-24.226M11.214 194.304c-5.64 1.326-8.466 8.175-4.831 12.944 1.381 1.813 3.537 1.864 5.078 3.298 3.111 2.894 4.385 6.778 9.614 5.555 6.348-1.483 7.548-10.956 4.793-16.093-3.002-5.596-8.73-7.096-14.654-5.704m560.002 95.562c-9.78 1.866-13.456 14.727-6.65 21.902 2.995 3.158 6.252 3.084 10.05 4.183 6.519 1.886 11.027 4.066 18.021 2.565 9.948-2.134 14.314-14.715 6.795-22.218-3.972-3.964-7.48-2.698-12.235-3.61-5.646-1.082-9.88-3.986-15.98-2.822z" style="fill:#f7d508;stroke:none;stroke-width:1.07235"/><g aria-label="Intergeschlechtliche Menschen Landesverband NRW e. V." style="font-size:13.3333px;font-family:&quot;Nimbus Sans&quot;;-inkscape-font-specification:&quot;Nimbus Sans&quot;;white-space:pre;shape-inside:url(#a);display:inline;fill:#7902aa;stroke:#7902aa" transform="translate(-8.229 9.051)"><path d="M205.674 173.14h-2.256v17.497h2.256zM209.37 178.06v12.577h2.016V183.7c0-2.568 1.344-4.248 3.408-4.248 1.584 0 2.592.96 2.592 2.472v8.712h1.992v-9.504c0-2.088-1.56-3.432-3.984-3.432-1.872 0-3.072.72-4.176 2.472v-2.112zM227.13 178.06h-2.064v-3.455h-1.992v3.456h-1.704v1.632h1.704v9.504c0 1.296.864 1.992 2.424 1.992.528 0 .96-.048 1.632-.168v-1.68c-.288.072-.552.096-.96.096-.864 0-1.104-.24-1.104-1.128v-8.616h2.064zM239.682 185.02c0-1.92-.144-3.071-.504-4.007-.816-2.064-2.736-3.312-5.088-3.312-3.504 0-5.76 2.664-5.76 6.816 0 4.152 2.16 6.672 5.712 6.672 2.88 0 4.872-1.632 5.376-4.368h-2.016c-.552 1.656-1.68 2.52-3.288 2.52-1.272 0-2.352-.576-3.024-1.632-.48-.72-.648-1.44-.672-2.688zm-9.216-1.631c.168-2.328 1.584-3.84 3.6-3.84 2.04 0 3.456 1.584 3.456 3.84zM242.37 178.06v12.577h2.016v-6.528c.024-3.024 1.272-4.368 4.032-4.296v-2.04a5.067 5.067 0 0 0-.768-.072c-1.296 0-2.28.768-3.432 2.64v-2.28zM258.33 178.06v1.825c-1.008-1.512-2.112-2.184-3.696-2.184-3.048 0-5.16 2.832-5.16 6.864 0 2.112.504 3.648 1.584 4.92.936 1.104 2.136 1.704 3.432 1.704 1.512 0 2.592-.672 3.648-2.256v.648c0 3.36-.936 4.608-3.432 4.608-1.704 0-2.592-.672-2.784-2.112h-2.04c.192 2.328 2.04 3.792 4.776 3.792 1.848 0 3.384-.6 4.2-1.608.96-1.176 1.32-2.736 1.32-5.688V178.06zm-3.504 1.489c2.112 0 3.312 1.776 3.312 4.968 0 3.048-1.224 4.824-3.312 4.824-2.064 0-3.264-1.8-3.264-4.896 0-3.072 1.2-4.896 3.264-4.896zM274.17 185.02c0-1.92-.144-3.071-.504-4.007-.816-2.064-2.736-3.312-5.088-3.312-3.504 0-5.76 2.664-5.76 6.816 0 4.152 2.16 6.672 5.712 6.672 2.88 0 4.872-1.632 5.376-4.368h-2.016c-.552 1.656-1.68 2.52-3.288 2.52-1.272 0-2.352-.576-3.024-1.632-.48-.72-.648-1.44-.672-2.688zm-9.216-1.631c.168-2.328 1.584-3.84 3.6-3.84 2.04 0 3.456 1.584 3.456 3.84zM285.618 181.565c-.024-2.472-1.656-3.864-4.56-3.864-2.928 0-4.824 1.512-4.824 3.84 0 1.968 1.008 2.904 3.984 3.624l1.872.456c1.392.336 1.944.84 1.944 1.728 0 1.2-1.176 1.992-2.928 1.992-1.08 0-1.992-.312-2.496-.84-.312-.36-.456-.72-.576-1.608h-2.112c.096 2.904 1.728 4.296 5.016 4.296 3.168 0 5.184-1.56 5.184-3.984 0-1.872-1.056-2.904-3.552-3.504l-1.92-.456c-1.632-.384-2.328-.912-2.328-1.8 0-1.176 1.032-1.896 2.664-1.896 1.608 0 2.472.696 2.52 2.016zM298.41 182.285c-.096-1.224-.36-2.016-.84-2.712-.864-1.176-2.376-1.872-4.128-1.872-3.408 0-5.592 2.688-5.592 6.864 0 4.056 2.16 6.624 5.568 6.624 3 0 4.896-1.8 5.136-4.872h-2.016c-.336 2.016-1.368 3.024-3.072 3.024-2.208 0-3.528-1.8-3.528-4.776 0-3.144 1.296-5.016 3.48-5.016 1.68 0 2.736.984 2.976 2.736zM300.786 173.14v17.497h1.992V183.7c0-2.568 1.344-4.248 3.408-4.248.672 0 1.296.192 1.776.552.576.432.816 1.032.816 1.92v8.712h1.992v-9.504c0-2.112-1.512-3.432-3.96-3.432-1.776 0-2.856.552-4.032 2.088v-6.648zM316.098 173.14h-2.016v17.497h2.016zM330.09 185.02c0-1.92-.144-3.071-.504-4.007-.816-2.064-2.736-3.312-5.088-3.312-3.504 0-5.76 2.664-5.76 6.816 0 4.152 2.16 6.672 5.712 6.672 2.88 0 4.872-1.632 5.376-4.368h-2.016c-.552 1.656-1.68 2.52-3.288 2.52-1.272 0-2.352-.576-3.024-1.632-.48-.72-.648-1.44-.672-2.688zm-9.216-1.631c.168-2.328 1.584-3.84 3.6-3.84 2.04 0 3.456 1.584 3.456 3.84zM342.426 182.285c-.096-1.224-.36-2.016-.84-2.712-.864-1.176-2.376-1.872-4.128-1.872-3.408 0-5.592 2.688-5.592 6.864 0 4.056 2.16 6.624 5.568 6.624 3 0 4.896-1.8 5.136-4.872h-2.016c-.336 2.016-1.368 3.024-3.072 3.024-2.208 0-3.528-1.8-3.528-4.776 0-3.144 1.296-5.016 3.48-5.016 1.68 0 2.736.984 2.976 2.736zM344.802 173.14v17.497h1.992V183.7c0-2.568 1.344-4.248 3.408-4.248.672 0 1.296.192 1.776.552.576.432.816 1.032.816 1.92v8.712h1.992v-9.504c0-2.112-1.512-3.432-3.96-3.432-1.776 0-2.856.552-4.032 2.088v-6.648zM362.562 178.06h-2.064v-3.455h-1.992v3.456h-1.704v1.632h1.704v9.504c0 1.296.864 1.992 2.424 1.992.528 0 .96-.048 1.632-.168v-1.68c-.288.072-.552.096-.96.096-.864 0-1.104-.24-1.104-1.128v-8.616h2.064zM366.786 173.14h-2.016v17.497h2.016zM372.066 178.06h-1.992v12.577h1.992zm0-4.92h-2.016v2.52h2.016zM385.098 182.285c-.096-1.224-.36-2.016-.84-2.712-.864-1.176-2.376-1.872-4.128-1.872-3.408 0-5.592 2.688-5.592 6.864 0 4.056 2.16 6.624 5.568 6.624 3 0 4.896-1.8 5.136-4.872h-2.016c-.336 2.016-1.368 3.024-3.072 3.024-2.208 0-3.528-1.8-3.528-4.776 0-3.144 1.296-5.016 3.48-5.016 1.68 0 2.736.984 2.976 2.736zM387.474 173.14v17.497h1.992V183.7c0-2.568 1.344-4.248 3.408-4.248.672 0 1.296.192 1.776.552.576.432.816 1.032.816 1.92v8.712h1.992v-9.504c0-2.112-1.512-3.432-3.96-3.432-1.776 0-2.856.552-4.032 2.088v-6.648zM411.45 185.02c0-1.92-.144-3.071-.504-4.007-.816-2.064-2.736-3.312-5.088-3.312-3.504 0-5.76 2.664-5.76 6.816 0 4.152 2.16 6.672 5.712 6.672 2.88 0 4.872-1.632 5.376-4.368h-2.016c-.552 1.656-1.68 2.52-3.288 2.52-1.272 0-2.352-.576-3.024-1.632-.48-.72-.648-1.44-.672-2.688zm-9.216-1.631c.168-2.328 1.584-3.84 3.6-3.84 2.04 0 3.456 1.584 3.456 3.84zM430.386 190.637l4.92-14.664v14.664h2.112V173.14h-3.096l-5.088 15.24-5.184-15.24h-3.096v17.496h2.112v-14.664l4.968 14.664zM451.458 185.02c0-1.92-.144-3.071-.504-4.007-.816-2.064-2.736-3.312-5.088-3.312-3.504 0-5.76 2.664-5.76 6.816 0 4.152 2.16 6.672 5.712 6.672 2.88 0 4.872-1.632 5.376-4.368h-2.016c-.552 1.656-1.68 2.52-3.288 2.52-1.272 0-2.352-.576-3.024-1.632-.48-.72-.648-1.44-.672-2.688zm-9.216-1.631c.168-2.328 1.584-3.84 3.6-3.84 2.04 0 3.456 1.584 3.456 3.84zM454.17 178.06v12.577h2.016V183.7c0-2.568 1.344-4.248 3.408-4.248 1.584 0 2.592.96 2.592 2.472v8.712h1.992v-9.504c0-2.088-1.56-3.432-3.984-3.432-1.872 0-3.072.72-4.176 2.472v-2.112zM476.346 181.565c-.024-2.472-1.656-3.864-4.56-3.864-2.928 0-4.824 1.512-4.824 3.84 0 1.968 1.008 2.904 3.984 3.624l1.872.456c1.392.336 1.944.84 1.944 1.728 0 1.2-1.176 1.992-2.928 1.992-1.08 0-1.992-.312-2.496-.84-.312-.36-.456-.72-.576-1.608h-2.112c.096 2.904 1.728 4.296 5.016 4.296 3.168 0 5.184-1.56 5.184-3.984 0-1.872-1.056-2.904-3.552-3.504l-1.92-.456c-1.632-.384-2.328-.912-2.328-1.8 0-1.176 1.032-1.896 2.664-1.896 1.608 0 2.472.696 2.52 2.016zM489.138 182.285c-.096-1.224-.36-2.016-.84-2.712-.864-1.176-2.376-1.872-4.128-1.872-3.408 0-5.592 2.688-5.592 6.864 0 4.056 2.16 6.624 5.568 6.624 3 0 4.896-1.8 5.136-4.872h-2.016c-.336 2.016-1.368 3.024-3.072 3.024-2.208 0-3.528-1.8-3.528-4.776 0-3.144 1.296-5.016 3.48-5.016 1.68 0 2.736.984 2.976 2.736zM491.514 173.14v17.497h1.992V183.7c0-2.568 1.344-4.248 3.408-4.248.672 0 1.296.192 1.776.552.576.432.816 1.032.816 1.92v8.712h1.992v-9.504c0-2.112-1.512-3.432-3.96-3.432-1.776 0-2.856.552-4.032 2.088v-6.648zM515.49 185.02c0-1.92-.144-3.071-.504-4.007-.816-2.064-2.736-3.312-5.088-3.312-3.504 0-5.76 2.664-5.76 6.816 0 4.152 2.16 6.672 5.712 6.672 2.88 0 4.872-1.632 5.376-4.368h-2.016c-.552 1.656-1.68 2.52-3.288 2.52-1.272 0-2.352-.576-3.024-1.632-.48-.72-.648-1.44-.672-2.688zm-9.216-1.631c.168-2.328 1.584-3.84 3.6-3.84 2.04 0 3.456 1.584 3.456 3.84zM518.202 178.06v12.577h2.016V183.7c0-2.568 1.344-4.248 3.408-4.248 1.584 0 2.592.96 2.592 2.472v8.712h1.992v-9.504c0-2.088-1.56-3.432-3.984-3.432-1.872 0-3.072.72-4.176 2.472v-2.112z" style="font-size:24px"/><path d="M268.141 202.307h-1.612v12.636h7.852v-1.421h-6.24zM284.105 214.094c-.156.035-.225.035-.312.035-.502 0-.78-.26-.78-.711v-5.339c0-1.612-1.178-2.478-3.414-2.478-1.335 0-2.392.381-3.016 1.057-.416.468-.59.988-.624 1.89h1.456c.121-1.11.78-1.613 2.132-1.613 1.317 0 2.028.486 2.028 1.352v.382c-.018.624-.33.849-1.508 1.005-2.046.26-2.358.33-2.912.555-1.058.45-1.595 1.248-1.595 2.426 0 1.647 1.144 2.687 2.981 2.687 1.144 0 2.063-.399 3.086-1.335.104.936.554 1.335 1.49 1.335.312 0 .503-.035.988-.156zm-2.53-2.01c0 .485-.139.78-.572 1.178-.59.537-1.3.815-2.15.815-1.126 0-1.785-.538-1.785-1.456 0-.954.624-1.44 2.184-1.664 1.543-.208 1.837-.278 2.323-.503zM285.683 205.86v9.083h1.456v-5.01c0-1.854.97-3.067 2.461-3.067 1.144 0 1.872.693 1.872 1.785v6.292h1.439v-6.864c0-1.508-1.127-2.478-2.878-2.478-1.352 0-2.218.52-3.016 1.785v-1.525zM302.687 202.307h-1.439v4.698c-.607-.92-1.577-1.404-2.79-1.404-2.358 0-3.9 1.889-3.9 4.784 0 3.068 1.49 4.957 3.951 4.957 1.248 0 2.115-.468 2.895-1.595v1.196h1.283zm-3.987 4.646c1.56 0 2.548 1.369 2.548 3.553 0 2.097-1.005 3.484-2.53 3.484-1.595 0-2.653-1.404-2.653-3.519 0-2.114 1.058-3.518 2.635-3.518zM312.636 210.887c0-1.386-.104-2.218-.364-2.894-.59-1.491-1.976-2.392-3.675-2.392-2.53 0-4.16 1.924-4.16 4.922 0 2.999 1.56 4.819 4.126 4.819 2.08 0 3.518-1.179 3.882-3.155h-1.456c-.398 1.196-1.213 1.82-2.374 1.82-.919 0-1.699-.416-2.184-1.178-.347-.52-.468-1.04-.486-1.942zm-6.656-1.178c.121-1.682 1.144-2.774 2.6-2.774 1.473 0 2.496 1.144 2.496 2.774zM320.904 208.391c-.017-1.785-1.196-2.79-3.293-2.79-2.115 0-3.484 1.092-3.484 2.773 0 1.421.728 2.097 2.877 2.617l1.352.33c1.005.242 1.404.606 1.404 1.248 0 .866-.85 1.438-2.115 1.438-.78 0-1.438-.225-1.802-.606-.226-.26-.33-.52-.416-1.162H313.9c.07 2.098 1.248 3.103 3.623 3.103 2.288 0 3.744-1.127 3.744-2.877 0-1.352-.763-2.098-2.565-2.531l-1.387-.33c-1.179-.277-1.681-.658-1.681-1.3 0-.849.745-1.369 1.924-1.369 1.16 0 1.785.503 1.82 1.456zM326.71 214.943l3.485-9.082h-1.63L326 213.227l-2.427-7.366h-1.63l3.19 9.082zM338.983 210.887c0-1.386-.104-2.218-.364-2.894-.59-1.491-1.976-2.392-3.675-2.392-2.53 0-4.16 1.924-4.16 4.922 0 2.999 1.56 4.819 4.125 4.819 2.08 0 3.519-1.179 3.883-3.155h-1.456c-.399 1.196-1.213 1.82-2.375 1.82-.918 0-1.698-.416-2.184-1.178-.346-.52-.468-1.04-.485-1.942zm-6.656-1.178c.12-1.682 1.144-2.774 2.6-2.774 1.473 0 2.496 1.144 2.496 2.774zM340.924 205.86v9.083h1.456v-4.714c.017-2.184.919-3.155 2.912-3.103v-1.473a3.655 3.655 0 0 0-.555-.052c-.936 0-1.646.554-2.478 1.906v-1.646zM346.557 202.307v12.636h1.3v-1.161c.694 1.057 1.612 1.56 2.878 1.56 2.392 0 3.952-1.959 3.952-4.975 0-2.946-1.474-4.766-3.883-4.766-1.248 0-2.132.468-2.808 1.49v-4.784zm3.97 4.646c1.612 0 2.652 1.404 2.652 3.57 0 2.063-1.075 3.467-2.652 3.467-1.543 0-2.531-1.387-2.531-3.519s.988-3.518 2.53-3.518zM364.532 214.094c-.156.035-.225.035-.312.035-.503 0-.78-.26-.78-.711v-5.339c0-1.612-1.179-2.478-3.415-2.478-1.334 0-2.392.381-3.016 1.057-.416.468-.59.988-.624 1.89h1.456c.122-1.11.78-1.613 2.132-1.613 1.318 0 2.028.486 2.028 1.352v.382c-.017.624-.33.849-1.508 1.005-2.045.26-2.357.33-2.912.555-1.057.45-1.594 1.248-1.594 2.426 0 1.647 1.144 2.687 2.98 2.687 1.145 0 2.064-.399 3.086-1.335.104.936.555 1.335 1.49 1.335.313 0 .504-.035.989-.156zm-2.53-2.01c0 .485-.14.78-.573 1.178-.59.537-1.3.815-2.15.815-1.126 0-1.784-.538-1.784-1.456 0-.954.624-1.44 2.184-1.664 1.542-.208 1.837-.278 2.322-.503zM366.11 205.86v9.083h1.455v-5.01c0-1.854.97-3.067 2.462-3.067 1.144 0 1.872.693 1.872 1.785v6.292h1.438v-6.864c0-1.508-1.126-2.478-2.877-2.478-1.352 0-2.219.52-3.016 1.785v-1.525zM383.113 202.307h-1.439v4.698c-.606-.92-1.577-1.404-2.79-1.404-2.358 0-3.9 1.889-3.9 4.784 0 3.068 1.49 4.957 3.952 4.957 1.248 0 2.114-.468 2.894-1.595v1.196h1.283zm-3.987 4.646c1.56 0 2.548 1.369 2.548 3.553 0 2.097-1.005 3.484-2.53 3.484-1.595 0-2.652-1.404-2.652-3.519 0-2.114 1.057-3.518 2.634-3.518zM400.186 202.307h-1.525v10.33l-6.604-10.33h-1.75v12.636h1.525V204.7l6.534 10.244h1.82zM404.728 209.5h4.16c1.438 0 2.08.694 2.08 2.254l-.018 1.127c0 .78.14 1.542.364 2.062h1.96v-.398c-.608-.416-.729-.867-.764-2.548-.017-2.08-.346-2.704-1.716-3.294 1.422-.71 1.994-1.56 1.994-3.016 0-2.184-1.352-3.38-3.848-3.38h-5.824v12.636h1.612zm0-1.42v-4.351h3.9c.901 0 1.421.138 1.82.485.433.364.658.936.658 1.681 0 1.508-.762 2.184-2.478 2.184zM426.498 214.943l3.207-12.636h-1.803l-2.322 10.262-2.878-10.262h-1.733l-2.808 10.262-2.375-10.262h-1.802l3.241 12.636h1.768l2.825-10.382 2.912 10.382zM443.676 210.887c0-1.386-.104-2.218-.364-2.894-.59-1.491-1.976-2.392-3.675-2.392-2.53 0-4.16 1.924-4.16 4.922 0 2.999 1.56 4.819 4.125 4.819 2.08 0 3.519-1.179 3.883-3.155h-1.456c-.399 1.196-1.213 1.82-2.375 1.82-.918 0-1.698-.416-2.184-1.178-.346-.52-.468-1.04-.485-1.942zm-6.656-1.178c.121-1.682 1.144-2.774 2.6-2.774 1.473 0 2.496 1.144 2.496 2.774zM447.333 213.14h-1.803v1.803h1.803zM460.454 214.943l4.386-12.636h-1.716l-3.502 10.695-3.709-10.695h-1.733l4.541 12.636zM467.076 213.14h-1.803v1.803h1.803z" style="font-size:17.3333px"/></g><g style="display:inline"><path d="M111.358 79.418a45.64 45.64 0 0 0-45.541 45.64 45.64 45.64 0 0 0 45.64 45.641 45.64 45.64 0 0 0 45.641-45.64 45.64 45.64 0 0 0-45.64-45.641 45.64 45.64 0 0 0-.1 0zm.1 13.23a32.411 32.411 0 0 1 32.41 32.41 32.411 32.411 0 0 1-32.41 32.412 32.411 32.411 0 0 1-32.412-32.411 32.411 32.411 0 0 1 32.411-32.412z" style="fill:#7902aa;fill-opacity:1;stroke:none;stroke-width:9.28085;stroke-linecap:round;stroke-linejoin:round;stroke-miterlimit:4;stroke-dasharray:none;stroke-dashoffset:4.56;paint-order:markers fill stroke" transform="matrix(1.08175 .359 -.359 1.08175 83.319 -54.477)"/><path d="M104.95 164.706c-25.168.055-45.54 20.473-45.54 45.64h13.228c0-17.9 14.512-32.411 32.412-32.411s32.411 14.511 32.411 32.411h13.23c0-25.206-20.435-45.64-45.641-45.64h-.1z" style="fill:#7902aa;fill-opacity:1;stroke:none;stroke-width:9.28085;stroke-linecap:round;stroke-linejoin:round;stroke-miterlimit:4;stroke-dasharray:none;stroke-dashoffset:4.56;paint-order:stroke markers fill" transform="matrix(1.08175 .359 -.359 1.08175 83.319 -54.477)"/><path d="M64.7 205.055h2.647a5.28 5.28 0 0 1 5.291 5.291v2.646a5.28 5.28 0 0 1-5.291 5.292H64.7a5.28 5.28 0 0 1-5.292-5.292v-2.646a5.28 5.28 0 0 1 5.292-5.291z" style="fill:#7902aa;fill-opacity:1;stroke:none;stroke-width:9.28085;stroke-linecap:round;stroke-linejoin:round;stroke-miterlimit:4;stroke-dasharray:none;stroke-dashoffset:4.56;paint-order:stroke markers fill" transform="matrix(1.08175 .359 -.359 1.08175 83.319 -54.477)"/><path d="M142.753 205.055h2.646a5.28 5.28 0 0 1 5.291 5.291v2.646a5.28 5.28 0 0 1-5.291 5.292h-2.646a5.28 5.28 0 0 1-5.292-5.292v-2.646a5.28 5.28 0 0 1 5.292-5.291z" style="display:inline;fill:#7902aa;fill-opacity:1;stroke:none;stroke-width:9.28085;stroke-linecap:round;stroke-linejoin:round;stroke-miterlimit:4;stroke-dasharray:none;stroke-dashoffset:4.56;paint-order:stroke markers fill" transform="matrix(1.08175 .359 -.359 1.08175 83.319 -54.477)"/></g></svg>